<mxfile host="Electron" modified="2023-12-09T02:47:35.281Z" agent="Mozilla/5.0 (Windows NT 10.0; Win64; x64) AppleWebKit/537.36 (KHTML, like Gecko) draw.io/22.1.2 Chrome/114.0.5735.289 Electron/25.9.4 Safari/537.36" version="22.1.2" etag="9QbA_Nq9pzcveWWX5zyP" type="device">
  <diagram id="rXvacoqmcw0YAw9G8x1U" name="第 1 页">
    <mxGraphModel dx="1221" dy="717" grid="0" gridSize="10" guides="1" tooltips="1" connect="1" arrows="1" fold="1" page="1" pageScale="1" pageWidth="827" pageHeight="1169" math="0" shadow="0">
      <root>
        <mxCell id="0" />
        <mxCell id="1" parent="0" />
        <mxCell id="2" value="用户名" style="rounded=1;whiteSpace=wrap;html=1;" parent="1" vertex="1">
          <mxGeometry x="100" y="180" width="120" height="40" as="geometry" />
        </mxCell>
        <mxCell id="4" value="密码" style="rounded=1;whiteSpace=wrap;html=1;" parent="1" vertex="1">
          <mxGeometry x="100" y="300" width="120" height="40" as="geometry" />
        </mxCell>
        <mxCell id="5" value="加密后的密码" style="rounded=1;whiteSpace=wrap;html=1;" parent="1" vertex="1">
          <mxGeometry x="510" y="300" width="120" height="40" as="geometry" />
        </mxCell>
        <mxCell id="6" value="HMAC(key, pwd)" style="endArrow=classic;html=1;exitX=1;exitY=0.5;exitDx=0;exitDy=0;entryX=0;entryY=0.5;entryDx=0;entryDy=0;" parent="1" source="4" target="5" edge="1">
          <mxGeometry width="50" height="50" relative="1" as="geometry">
            <mxPoint x="490" y="360" as="sourcePoint" />
            <mxPoint x="540" y="310" as="targetPoint" />
          </mxGeometry>
        </mxCell>
        <mxCell id="8" value="MD5" style="endArrow=classic;html=1;exitX=1;exitY=0.5;exitDx=0;exitDy=0;" parent="1" source="2" edge="1">
          <mxGeometry x="0.4" width="50" height="50" relative="1" as="geometry">
            <mxPoint x="490" y="360" as="sourcePoint" />
            <mxPoint x="360" y="310" as="targetPoint" />
            <Array as="points">
              <mxPoint x="360" y="200" />
            </Array>
            <mxPoint as="offset" />
          </mxGeometry>
        </mxCell>
        <mxCell id="ZX5MXd82bKCV7Uk3v1Yv-8" value="时间戳" style="rounded=1;whiteSpace=wrap;html=1;" vertex="1" parent="1">
          <mxGeometry x="510" y="149" width="120" height="40" as="geometry" />
        </mxCell>
        <mxCell id="ZX5MXd82bKCV7Uk3v1Yv-9" value="" style="endArrow=classic;html=1;rounded=0;exitX=0;exitY=0.5;exitDx=0;exitDy=0;" edge="1" parent="1" source="ZX5MXd82bKCV7Uk3v1Yv-8">
          <mxGeometry width="50" height="50" relative="1" as="geometry">
            <mxPoint x="325" y="144" as="sourcePoint" />
            <mxPoint x="322" y="200" as="targetPoint" />
            <Array as="points">
              <mxPoint x="322" y="169" />
            </Array>
          </mxGeometry>
        </mxCell>
        <mxCell id="ZX5MXd82bKCV7Uk3v1Yv-10" value="加盐" style="edgeLabel;html=1;align=center;verticalAlign=middle;resizable=0;points=[];" vertex="1" connectable="0" parent="ZX5MXd82bKCV7Uk3v1Yv-9">
          <mxGeometry x="0.0198" y="-1" relative="1" as="geometry">
            <mxPoint as="offset" />
          </mxGeometry>
        </mxCell>
      </root>
    </mxGraphModel>
  </diagram>
</mxfile>
